<svg xmlns="http://www.w3.org/2000/svg" xmlns:xlink="http://www.w3.org/1999/xlink" version="1.1" id="Layer_1" x="0px" y="0px" enable-background="new 0 0 465 56.7" xml:space="preserve" viewBox="0 0 127.9 56.7"><path fill="#FFFFFF" d="M13.2,30.8L13.2,30.8c0-0.7,0-0.5,0-0.5c0-2.7,16.5-23.7,44.2-30.2C22.8,2.6,0,25.3,0,30.4c0,0,0-0.3,0,0.4  h0c0.5,5,17,23,53.7,25.9C22,48.2,13.8,33.8,13.2,30.8z"></path><path fill="#FFFFFF" d="M127.9,30.7C127.7,24.4,105.7,2,68,0c31.4,6.2,46.5,27.9,46.5,30.7c0,0.3-0.1,0.7-0.2,0.8  c-0.4,0.7-1.3,1.9-2.8,3.3c-13.2,10.9-27.2,11.9-31,12c4.1-4.3,6.8-10.4,6.8-16.7c0-12.9-10.5-23.5-23.5-23.5  c-12.9,0-23.4,10.5-23.4,23.4c0,27.5,35.3,30.1,57.2,22.9c18-5.9,30-18.7,30.3-21.9h0C127.9,30.5,127.9,30.7,127.9,30.7z M63.8,43.4  c-7.3,0-13.3-6-13.3-13.3c0-7.3,6-13.3,13.3-13.3c7.3,0,13.3,6,13.3,13.3C77.1,37.4,71.1,43.4,63.8,43.4z"></path></svg>