<svg style="width:100%;height:auto" width="165" height="132" viewBox="0 0 165 132" fill="none"><path d="M87.0518 95.524C74.7138 95.524 62.8358 92.188 52.3428 84.924C45.0288 79.863 36.5638 68.435 36.5638 49.061C36.5638 13.118 54.9238 0 91.8198 0H158.246L164.642 20.472H96.8818C72.5298 20.472 58.0498 22.371 58.0498 49.061C58.0498 57.877 60.5358 64.151 65.6528 68.239C74.3008 75.149 91.1098 75.443 101.381 74.453C101.381 74.453 105.595 60.902 106.289 58.702C107.102 56.124 106.746 55.509 104.21 55.509C100.547 55.509 93.9618 55.509 86.9728 55.509C82.0748 55.509 77.2628 53.044 77.2628 47.123C77.2628 41.405 81.7398 38.086 87.8768 38.086C98.5028 38.086 120.388 38.086 124.484 38.086C129.854 38.086 135.334 38.856 132.538 47.357L117.731 92.263C117.732 92.264 105.635 95.524 87.0518 95.524Z" fill="#fff"></path><path d="M128.522 103.147C121.059 108.372 110.005 111.26 91.2478 111.26C58.9188 111.26 35.2578 99.643 25.6108 77.122C21.0498 66.477 21.4888 54.412 21.4888 38.095H0.00384383C0.00384383 55.301 -0.292156 68.792 4.31084 81.218C16.3808 113.814 47.4628 131.327 89.2168 131.327C129.633 131.327 146.381 119.802 157.299 103.147H128.522Z" fill="#fff"></path><defs><linearGradient id="paint0_linear_1_17" x1="53.7006" y1="16.0797" x2="53.7006" y2="60.3347" gradientUnits="userSpaceOnUse"><stop stop-color="white"></stop><stop offset="1" stop-color="white"></stop></linearGradient><linearGradient id="paint1_linear_1_17" x1="46.036" y1="16.0797" x2="46.036" y2="60.3347" gradientUnits="userSpaceOnUse"><stop stop-color="white"></stop><stop offset="1" stop-color="white"></stop></linearGradient></defs></svg>
